<?xml version="1.0" encoding="utf-8"?>
<!DOCTYPE svg PUBLIC "-//W3C//DTD SVG 1.1//EN" "http://www.w3.org/Graphics/SVG/1.1/DTD/svg11.dtd">
<svg version="1.1"
	xmlns="http://www.w3.org/2000/svg"
	xmlns:xlink="http://www.w3.org/1999/xlink" x="0px" y="0px" width="3000px" height="3000px" viewBox="0 0 3000 3000" enable-background="new 0 0 3000 3000" xml:space="preserve" preserveAspectRatio="xMidYMid slice">
	<g stroke="__STROKE__" stroke-width="__WIDTH__" fill="__FILL__" vector-effect="non-scaling-stroke" stroke-linecap="butt" stroke-linejoin="miter">
		<path d="M-0.065,1155.951" />
		<path d="M375.634,1155.951" />
		<path d="M750.675,1155.951" />
		<path d="M1125.717,1155.951
		"/>
		<path d="M-0.065,1155.951" />
		<path d="M375.634,1155.951" />
		<path d="M750.675,1155.951" />
		<path d="M1125.717,1155.951
		"/>
		<polygon points="
		-0.166,1071.981 187.354,964.978 374.875,1071.981 374.875,1285.991 187.354,1392.994 -0.166,1285.991 	"/>
		<polygon points="
		93.594,1125.483 187.354,1071.981 281.116,1125.483 281.116,1232.488 187.354,1285.991 93.594,1232.488 	"/>
		<line x1="-0.824" y1="1285.991" x2="92.937" y2="1232.488"/>
		<line x1="281.116" y1="1232.488" x2="374.875" y2="1285.991"/>
		<line x1="186.697" y1="1071.981" x2="186.697" y2="964.978"/>
		<line x1="186.697" y1="1285.991" x2="186.697" y2="1178.985"/>
		<line x1="93.594" y1="1125.483" x2="187.354" y2="1178.985"/>
		<line x1="187.354" y1="1178.985" x2="281.116" y2="1125.483"/>
		<polygon points="
		374.875,1071.981 562.396,964.978 749.917,1071.981 749.917,1285.991 562.396,1392.994 374.875,1285.991 	"/>
		<polygon points="
		468.636,1125.483 562.396,1071.981 656.158,1125.483 656.158,1232.488 562.396,1285.991 468.636,1232.488 	"/>
		<line x1="374.875" y1="1285.991" x2="468.636" y2="1232.488"/>
		<line x1="656.158" y1="1232.488" x2="749.917" y2="1285.991"/>
		<line x1="562.396" y1="1071.981" x2="562.396" y2="964.978"/>
		<line x1="562.396" y1="1285.991" x2="562.396" y2="1178.985"/>
		<line x1="468.636" y1="1125.483" x2="562.396" y2="1178.985"/>
		<line x1="562.396" y1="1178.985" x2="656.158" y2="1125.483"/>
		<polygon points="
		749.917,1071.981 937.438,964.978 1124.958,1071.981 1124.958,1285.991 937.438,1392.994 749.917,1285.991 	"/>
		<polygon points="
		843.676,1125.483 937.438,1071.981 1031.199,1125.483 1031.199,1232.488 937.438,1285.991 843.676,1232.488 	"/>
		<line x1="749.917" y1="1285.991" x2="843.676" y2="1232.488"/>
		<line x1="1031.199" y1="1232.488" x2="1124.958" y2="1285.991"/>
		<line x1="937.438" y1="1071.981" x2="937.438" y2="964.978"/>
		<line x1="937.438" y1="1285.991" x2="937.438" y2="1178.985"/>
		<line x1="843.676" y1="1125.483" x2="937.438" y2="1178.985"/>
		<line x1="937.438" y1="1178.985" x2="1031.199" y2="1125.483"/>
		<polygon points="
		1124.958,1071.981 1312.479,964.978 1500,1071.981 1500,1285.991 1312.479,1392.994 1124.958,1285.991 	"/>
		<polygon points="
		1218.718,1125.483 1312.479,1071.981 1406.241,1125.483 1406.241,1232.488 1312.479,1285.991 1218.718,1232.488 	"/>
		<line x1="1124.958" y1="1285.991" x2="1218.718" y2="1232.488"/>
		<line x1="1406.241" y1="1232.488" x2="1500" y2="1285.991"/>
		<line x1="1312.479" y1="1071.981" x2="1312.479" y2="964.978"/>
		<line x1="1312.479" y1="1285.991" x2="1312.479" y2="1178.985"/>
		<line x1="1218.718" y1="1125.483" x2="1312.479" y2="1178.985"/>
		<line x1="1312.479" y1="1178.985" x2="1406.241" y2="1125.483"/>
		<path d="M-0.065,1155.951" />
		<path d="M375.634,1155.951" />
		<path d="M750.675,1155.951" />
		<path d="M1125.717,1155.951
		"/>
		<path d="M-0.065,1155.951" />
		<path d="M375.634,1155.951" />
		<path d="M750.675,1155.951" />
		<path d="M1125.717,1155.951
		"/>
		<path d="M-0.065,1155.951" />
		<path d="M375.634,1155.951" />
		<path d="M750.675,1155.951" />
		<path d="M1125.717,1155.951
		"/>
		<path d="M-0.065,1155.951" />
		<path d="M375.634,1155.951" />
		<path d="M750.675,1155.951" />
		<path d="M1125.717,1155.951
		"/>
		<path d="M-0.065,1155.951" />
		<path d="M375.634,1155.951" />
		<path d="M750.675,1155.951" />
		<path d="M1125.717,1155.951
		"/>
		<path d="M-0.065,1155.951" />
		<path d="M375.634,1155.951" />
		<path d="M750.675,1155.951" />
		<path d="M1125.717,1155.951
		"/>
		<polygon points="
		-188.345,750.969 -0.824,643.965 186.697,750.968 186.697,964.978 -0.824,1071.981 -188.345,964.978 	"/>
		<polygon points="
		-94.584,804.471 -0.824,750.969 92.938,804.471 92.938,911.475 -0.824,964.978 -94.584,911.475 	"/>
		<line x1="-188.345" y1="964.978" x2="-94.584" y2="911.475"/>
		<line x1="92.938" y1="911.475" x2="186.697" y2="964.978"/>
		<line x1="-0.824" y1="750.969" x2="-0.824" y2="643.965"/>
		<line x1="-0.824" y1="964.978" x2="-0.824" y2="857.973"/>
		<line x1="-94.584" y1="804.471" x2="-0.824" y2="857.973"/>
		<line x1="-0.824" y1="857.973" x2="92.938" y2="804.471"/>
		<polygon points="
		187.354,750.969 374.875,643.965 562.396,750.968 562.396,964.978 374.875,1071.981 187.354,964.978 	"/>
		<polygon points="
		281.115,804.471 374.875,750.969 468.637,804.471 468.637,911.475 374.875,964.978 281.115,911.475 	"/>
		<line x1="187.354" y1="964.978" x2="281.115" y2="911.475"/>
		<line x1="468.637" y1="911.475" x2="562.396" y2="964.978"/>
		<line x1="374.875" y1="750.969" x2="374.875" y2="643.965"/>
		<line x1="374.875" y1="964.978" x2="374.875" y2="857.973"/>
		<line x1="281.115" y1="804.471" x2="374.875" y2="857.973"/>
		<line x1="374.875" y1="857.973" x2="468.637" y2="804.471"/>
		<polygon points="
		562.396,750.969 749.917,643.965 937.438,750.968 937.438,964.978 749.917,1071.981 562.396,964.978 	"/>
		<polygon points="
		656.157,804.471 749.917,750.969 843.678,804.471 843.678,911.475 749.917,964.978 656.157,911.475 	"/>
		<line x1="562.396" y1="964.978" x2="656.157" y2="911.475"/>
		<line x1="843.678" y1="911.475" x2="937.438" y2="964.978"/>
		<line x1="749.917" y1="750.969" x2="749.917" y2="643.965"/>
		<line x1="749.917" y1="964.978" x2="749.917" y2="857.973"/>
		<line x1="656.157" y1="804.471" x2="749.917" y2="857.973"/>
		<line x1="749.917" y1="857.973" x2="843.678" y2="804.471"/>
		<polygon points="
		937.438,750.969 1124.958,643.965 1312.479,750.968 1312.479,964.978 1124.958,1071.981 937.438,964.978 	"/>
		<polygon points="
		1031.197,804.471 1124.958,750.969 1218.72,804.471 1218.72,911.475 1124.958,964.978 1031.197,911.475 	"/>
		<line x1="937.438" y1="964.978" x2="1031.197" y2="911.475"/>
		<line x1="1218.72" y1="911.475" x2="1312.479" y2="964.978"/>
		<line x1="1124.958" y1="750.969" x2="1124.958" y2="643.965"/>
		<line x1="1124.958" y1="964.978" x2="1124.958" y2="857.973"/>
		<line x1="1031.197" y1="804.471" x2="1124.958" y2="857.973"/>
		<line x1="1124.958" y1="857.973" x2="1218.72" y2="804.471"/>
		<path d="M-0.065,513.925"/>
		<path d="M375.634,513.925" />
		<path d="M750.675,513.925" />
		<path d="M1125.717,513.925" />
		<path d="M-0.065,513.925"/>
		<path d="M375.634,513.925" />
		<path d="M750.675,513.925" />
		<path d="M1125.717,513.925" />
		<polygon points="
		-0.166,429.956 187.354,322.953 374.875,429.956 374.875,643.965 187.354,750.969 -0.166,643.965 	"/>
		<polygon points="
		93.594,483.458 187.354,429.956 281.116,483.458 281.116,590.463 187.354,643.965 93.594,590.463 	"/>
		<line x1="-0.824" y1="643.965" x2="92.937" y2="590.463"/>
		<line x1="281.116" y1="590.463" x2="374.875" y2="643.965"/>
		<line x1="186.697" y1="429.956" x2="186.697" y2="322.953"/>
		<line x1="186.697" y1="643.965" x2="186.697" y2="536.961"/>
		<line x1="92.937" y1="483.458" x2="186.697" y2="536.961"/>
		<line x1="187.354" y1="536.961" x2="281.116" y2="483.458"/>
		<polygon points="
		374.875,429.956 562.396,322.953 749.917,429.956 749.917,643.965 562.396,750.969 374.875,643.965 	"/>
		<polygon points="
		468.636,483.458 562.396,429.956 656.158,483.458 656.158,590.463 562.396,643.965 468.636,590.463 	"/>
		<line x1="374.875" y1="643.965" x2="468.636" y2="590.463"/>
		<line x1="656.158" y1="590.463" x2="749.917" y2="643.965"/>
		<line x1="562.396" y1="429.956" x2="562.396" y2="322.953"/>
		<line x1="562.396" y1="643.965" x2="562.396" y2="536.961"/>
		<line x1="468.636" y1="483.458" x2="562.396" y2="536.961"/>
		<line x1="562.396" y1="536.961" x2="656.158" y2="483.458"/>
		<polygon points="
		749.917,429.956 937.438,322.953 1124.958,429.956 1124.958,643.965 937.438,750.969 749.917,643.965 	"/>
		<polygon points="
		843.676,483.458 937.438,429.956 1031.199,483.458 1031.199,590.463 937.438,643.965 843.676,590.463 	"/>
		<line x1="749.917" y1="643.965" x2="843.676" y2="590.463"/>
		<line x1="1031.199" y1="590.463" x2="1124.958" y2="643.965"/>
		<line x1="937.438" y1="429.956" x2="937.438" y2="322.953"/>
		<line x1="937.438" y1="643.965" x2="937.438" y2="536.961"/>
		<line x1="843.676" y1="483.458" x2="937.438" y2="536.961"/>
		<line x1="937.438" y1="536.961" x2="1031.199" y2="483.458"/>
		<polygon points="
		1124.958,429.956 1312.479,322.953 1500,429.956 1500,643.965 1312.479,750.969 1124.958,643.965 	"/>
		<polygon points="
		1218.718,483.458 1312.479,429.956 1406.241,483.458 1406.241,590.463 1312.479,643.965 1218.718,590.463 	"/>
		<line x1="1124.958" y1="643.965" x2="1218.718" y2="590.463"/>
		<line x1="1406.241" y1="590.463" x2="1500" y2="643.965"/>
		<line x1="1312.479" y1="429.956" x2="1312.479" y2="322.953"/>
		<line x1="1312.479" y1="643.965" x2="1312.479" y2="536.961"/>
		<line x1="1218.718" y1="483.458" x2="1312.479" y2="536.961"/>
		<line x1="1312.479" y1="536.961" x2="1406.241" y2="483.458"/>
		<path d="M-0.065,513.925"/>
		<path d="M375.634,513.925" />
		<path d="M750.675,513.925" />
		<path d="M1125.717,513.925" />
		<path d="M-0.065,513.925"/>
		<path d="M375.634,513.925" />
		<path d="M750.675,513.925" />
		<path d="M1125.717,513.925" />
		<path d="M-0.065,513.925"/>
		<path d="M375.634,513.925" />
		<path d="M750.675,513.925" />
		<path d="M1125.717,513.925" />
		<path d="M-0.065,513.925"/>
		<path d="M375.634,513.925" />
		<path d="M750.675,513.925" />
		<path d="M1125.717,513.925" />
		<path d="M-0.065,513.925"/>
		<path d="M375.634,513.925" />
		<path d="M750.675,513.925" />
		<path d="M1125.717,513.925" />
		<path d="M-0.065,513.925"/>
		<path d="M375.634,513.925" />
		<path d="M750.675,513.925" />
		<path d="M1125.717,513.925" />
		<polygon points="
		-188.345,108.944 -0.824,1.939 186.697,108.943 186.697,322.953 -0.824,429.956 -188.345,322.953 	"/>
		<polygon points="
		-94.584,162.446 -0.824,108.944 92.938,162.446 92.938,269.45 -0.824,322.953 -94.584,269.45 	"/>
		<line x1="-188.345" y1="322.953" x2="-94.584" y2="269.45"/>
		<line x1="92.938" y1="269.45" x2="186.697" y2="322.953"/>
		<line x1="-0.824" y1="108.944" x2="-0.824" y2="1.939"/>
		<line x1="-0.824" y1="322.953" x2="-0.824" y2="215.948"/>
		<line x1="-94.584" y1="162.446" x2="-0.824" y2="215.948"/>
		<line x1="-0.824" y1="215.948" x2="92.938" y2="162.446"/>
		<polygon points="
		187.354,108.944 374.875,1.939 562.396,108.943 562.396,322.953 374.875,429.956 187.354,322.953 	"/>
		<polygon points="
		281.115,162.446 374.875,108.944 468.637,162.446 468.637,269.45 374.875,322.953 281.115,269.45 	"/>
		<line x1="187.354" y1="322.953" x2="281.115" y2="269.45"/>
		<line x1="468.637" y1="269.45" x2="562.396" y2="322.953"/>
		<line x1="374.875" y1="108.944" x2="374.875" y2="1.939"/>
		<line x1="374.875" y1="322.953" x2="374.875" y2="215.948"/>
		<line x1="281.115" y1="162.446" x2="374.875" y2="215.948"/>
		<line x1="374.875" y1="215.948" x2="468.637" y2="162.446"/>
		<polygon points="
		562.396,108.944 749.917,1.939 937.438,108.943 937.438,322.953 749.917,429.956 562.396,322.953 	"/>
		<polygon points="
		656.157,162.446 749.917,108.944 843.678,162.446 843.678,269.45 749.917,322.953 656.157,269.45 	"/>
		<line x1="562.396" y1="322.953" x2="656.157" y2="269.45"/>
		<line x1="843.678" y1="269.45" x2="937.438" y2="322.953"/>
		<line x1="749.917" y1="108.944" x2="749.917" y2="1.939"/>
		<line x1="749.917" y1="322.953" x2="749.917" y2="215.948"/>
		<line x1="656.157" y1="162.446" x2="749.917" y2="215.948"/>
		<line x1="749.917" y1="215.948" x2="843.678" y2="162.446"/>
		<polygon points="
		937.438,108.944 1124.958,1.939 1312.479,108.943 1312.479,322.953 1124.958,429.956 937.438,322.953 	"/>
		<polygon points="
		1031.197,162.446 1124.958,108.944 1218.72,162.446 1218.72,269.45 1124.958,322.953 1031.197,269.45 	"/>
		<line x1="937.438" y1="322.953" x2="1031.197" y2="269.45"/>
		<line x1="1218.72" y1="269.45" x2="1312.479" y2="322.953"/>
		<line x1="1124.958" y1="108.944" x2="1124.958" y2="1.939"/>
		<line x1="1124.958" y1="322.953" x2="1124.958" y2="215.948"/>
		<line x1="1031.197" y1="162.446" x2="1124.958" y2="215.948"/>
		<line x1="1124.958" y1="215.948" x2="1218.72" y2="162.446"/>
		<path d="M-0.065-128.1"/>
		<path d="M375.634-128.1"/>
		<path d="M750.675-128.1"/>
		<path d="M1125.717-128.1"/>
		<path d="M-0.065-128.1"/>
		<path d="M375.634-128.1"/>
		<path d="M750.675-128.1"/>
		<path d="M1125.717-128.1"/>
		<polygon points="
		-0.166,-212.069 187.354,-319.073 374.875,-212.069 374.875,1.94 187.354,108.944 -0.166,1.94 	"/>
		<polygon points="
		93.594,-158.567 187.354,-212.069 281.116,-158.567 281.116,-51.562 187.354,1.94 93.594,-51.562 	"/>
		<line x1="-0.824" y1="1.94" x2="92.937" y2="-51.562"/>
		<line x1="281.116" y1="-51.562" x2="374.875" y2="1.94"/>
		<line x1="186.697" y1="-212.069" x2="186.697" y2="-319.073"/>
		<line x1="186.697" y1="1.94" x2="186.697" y2="-105.064"/>
		<line x1="92.937" y1="-158.567" x2="186.697" y2="-105.064"/>
		<line x1="187.354" y1="-105.064" x2="281.116" y2="-158.567"/>
		<polygon points="
		374.875,-212.069 562.396,-319.073 749.917,-212.069 749.917,1.94 562.396,108.944 374.875,1.94 	"/>
		<polygon points="
		468.636,-158.567 562.396,-212.069 656.158,-158.567 656.158,-51.562 562.396,1.94 468.636,-51.562 	"/>
		<line x1="374.875" y1="1.94" x2="468.636" y2="-51.562"/>
		<line x1="656.158" y1="-51.562" x2="749.917" y2="1.94"/>
		<line x1="562.396" y1="-212.069" x2="562.396" y2="-319.073"/>
		<line x1="562.396" y1="1.94" x2="562.396" y2="-105.064"/>
		<line x1="468.636" y1="-158.567" x2="562.396" y2="-105.064"/>
		<line x1="562.396" y1="-105.064" x2="656.158" y2="-158.567"/>
		<polygon points="
		749.917,-212.069 937.438,-319.073 1124.958,-212.069 1124.958,1.94 937.438,108.944 749.917,1.94 	"/>
		<polygon points="
		843.676,-158.567 937.438,-212.069 1031.199,-158.567 1031.199,-51.562 937.438,1.94 843.676,-51.562 	"/>
		<line x1="749.917" y1="1.94" x2="843.676" y2="-51.562"/>
		<line x1="1031.199" y1="-51.562" x2="1124.958" y2="1.94"/>
		<line x1="937.438" y1="-212.069" x2="937.438" y2="-319.073"/>
		<line x1="937.438" y1="1.94" x2="937.438" y2="-105.064"/>
		<line x1="843.676" y1="-158.567" x2="937.438" y2="-105.064"/>
		<line x1="937.438" y1="-105.064" x2="1031.199" y2="-158.567"/>
		<polygon points="
		1124.958,-212.069 1312.479,-319.073 1500,-212.069 1500,1.94 1312.479,108.944 1124.958,1.94 	"/>
		<polygon points="
		1218.718,-158.567 1312.479,-212.069 1406.241,-158.567 1406.241,-51.562 1312.479,1.94 1218.718,-51.562 	"/>
		<line x1="1124.958" y1="1.94" x2="1218.718" y2="-51.562"/>
		<line x1="1406.241" y1="-51.562" x2="1500" y2="1.94"/>
		<line x1="1312.479" y1="-212.069" x2="1312.479" y2="-319.073"/>
		<line x1="1312.479" y1="1.94" x2="1312.479" y2="-105.064"/>
		<line x1="1218.718" y1="-158.567" x2="1312.479" y2="-105.064"/>
		<line x1="1312.479" y1="-105.064" x2="1406.241" y2="-158.567"/>
		<path d="M-0.065-128.1"/>
		<path d="M375.634-128.1"/>
		<path d="M750.675-128.1"/>
		<path d="M1125.717-128.1"/>
		<path d="M-0.065-128.1"/>
		<path d="M375.634-128.1"/>
		<path d="M750.675-128.1"/>
		<path d="M1125.717-128.1"/>
		<path d="M-0.065-128.1"/>
		<path d="M375.634-128.1"/>
		<path d="M750.675-128.1"/>
		<path d="M1125.717-128.1"/>
		<path d="M-0.065-128.1"/>
		<path d="M375.634-128.1"/>
		<path d="M750.675-128.1"/>
		<path d="M1125.717-128.1"/>
		<path d="M-0.065-128.1"/>
		<path d="M375.634-128.1"/>
		<path d="M750.675-128.1"/>
		<path d="M1125.717-128.1"/>
		<path d="M-0.065-128.1"/>
		<path d="M375.634-128.1"/>
		<path d="M750.675-128.1"/>
		<path d="M1125.717-128.1"/>
		<polygon points="
		1312.479,750.969 1500,643.965 1687.521,750.968 1687.521,964.978 1500,1071.981 1312.479,964.978 	"/>
		<polygon points="
		1406.239,804.471 1500,750.969 1593.763,804.471 1593.763,911.475 1500,964.978 1406.239,911.475 	"/>
		<line x1="1312.479" y1="964.978" x2="1406.239" y2="911.475"/>
		<line x1="1593.763" y1="911.475" x2="1687.521" y2="964.978"/>
		<line x1="1500" y1="750.969" x2="1500" y2="643.965"/>
		<line x1="1500" y1="964.978" x2="1500" y2="857.973"/>
		<line x1="1406.239" y1="804.471" x2="1500" y2="857.973"/>
		<line x1="1500" y1="857.973" x2="1593.763" y2="804.471"/>
		<polygon points="
		1312.479,108.944 1500,1.939 1687.521,108.943 1687.521,322.953 1500,429.956 1312.479,322.953 	"/>
		<polygon points="
		1406.239,162.446 1500,108.944 1593.763,162.446 1593.763,269.45 1500,322.953 1406.239,269.45 	"/>
		<line x1="1312.479" y1="322.953" x2="1406.239" y2="269.45"/>
		<line x1="1593.763" y1="269.45" x2="1687.521" y2="322.953"/>
		<line x1="1500" y1="108.944" x2="1500" y2="1.939"/>
		<line x1="1500" y1="322.953" x2="1500" y2="215.948"/>
		<line x1="1406.239" y1="162.446" x2="1500" y2="215.948"/>
		<line x1="1500" y1="215.948" x2="1593.763" y2="162.446"/>
		<polygon points="
		-188.345,1392.994 -0.824,1285.991 186.697,1392.994 186.697,1607.004 -0.824,1714.008 -188.345,1607.004 	"/>
		<polygon points="
		-94.584,1446.497 -0.824,1392.994 92.938,1446.497 92.938,1553.502 -0.824,1607.004 -94.584,1553.502 	"/>
		<line x1="-188.345" y1="1607.004" x2="-94.584" y2="1553.502"/>
		<line x1="92.938" y1="1553.502" x2="186.697" y2="1607.004"/>
		<line x1="-0.824" y1="1392.994" x2="-0.824" y2="1285.991"/>
		<line x1="-0.824" y1="1607.004" x2="-0.824" y2="1499.999"/>
		<line x1="-94.584" y1="1446.497" x2="-0.824" y2="1499.999"/>
		<line x1="-0.824" y1="1499.999" x2="92.938" y2="1446.497"/>
		<polygon points="
		187.354,1392.994 374.875,1285.991 562.396,1392.994 562.396,1607.004 374.875,1714.008 187.354,1607.004 	"/>
		<polygon points="
		281.115,1446.497 374.875,1392.994 468.637,1446.497 468.637,1553.502 374.875,1607.004 281.115,1553.502 	"/>
		<line x1="187.354" y1="1607.004" x2="281.115" y2="1553.502"/>
		<line x1="468.637" y1="1553.502" x2="562.396" y2="1607.004"/>
		<line x1="374.875" y1="1392.994" x2="374.875" y2="1285.991"/>
		<line x1="374.875" y1="1607.004" x2="374.875" y2="1499.999"/>
		<line x1="281.115" y1="1446.497" x2="374.875" y2="1499.999"/>
		<line x1="374.875" y1="1499.999" x2="468.637" y2="1446.497"/>
		<polygon points="
		562.396,1392.994 749.917,1285.991 937.438,1392.994 937.438,1607.004 749.917,1714.008 562.396,1607.004 	"/>
		<polygon points="
		656.157,1446.497 749.917,1392.994 843.678,1446.497 843.678,1553.502 749.917,1607.004 656.157,1553.502 	"/>
		<line x1="562.396" y1="1607.004" x2="656.157" y2="1553.502"/>
		<line x1="843.678" y1="1553.502" x2="937.438" y2="1607.004"/>
		<line x1="749.917" y1="1392.994" x2="749.917" y2="1285.991"/>
		<line x1="749.917" y1="1607.004" x2="749.917" y2="1499.999"/>
		<line x1="656.157" y1="1446.497" x2="749.917" y2="1499.999"/>
		<line x1="749.917" y1="1499.999" x2="843.678" y2="1446.497"/>
		<polygon points="
		937.438,1392.994 1124.958,1285.991 1312.479,1392.994 1312.479,1607.004 1124.958,1714.008 937.438,1607.004 	"/>
		<polygon points="
		1031.197,1446.497 1124.958,1392.994 1218.72,1446.497 1218.72,1553.502 1124.958,1607.004 1031.197,1553.502 	"/>
		<line x1="937.438" y1="1607.004" x2="1031.197" y2="1553.502"/>
		<line x1="1218.72" y1="1553.502" x2="1312.479" y2="1607.004"/>
		<line x1="1124.958" y1="1392.994" x2="1124.958" y2="1285.991"/>
		<line x1="1124.958" y1="1607.004" x2="1124.958" y2="1499.999"/>
		<line x1="1031.197" y1="1446.497" x2="1124.958" y2="1499.999"/>
		<line x1="1124.958" y1="1499.999" x2="1218.72" y2="1446.497"/>
		<polygon points="
		1312.479,1392.994 1500,1285.991 1687.521,1392.994 1687.521,1607.004 1500,1714.008 1312.479,1607.004 	"/>
		<polygon points="
		1406.239,1446.497 1500,1392.994 1593.763,1446.497 1593.763,1553.502 1500,1607.004 1406.239,1553.502 	"/>
		<line x1="1312.479" y1="1607.004" x2="1406.239" y2="1553.502"/>
		<line x1="1593.763" y1="1553.502" x2="1687.521" y2="1607.004"/>
		<line x1="1500" y1="1392.994" x2="1500" y2="1285.991"/>
		<line x1="1500" y1="1607.004" x2="1500" y2="1499.999"/>
		<line x1="1406.239" y1="1446.497" x2="1500" y2="1499.999"/>
		<line x1="1500" y1="1499.999" x2="1593.763" y2="1446.497"/>
		<path d="M-0.065,3082.027" />
		<path d="M375.634,3082.027" />
		<path d="M750.675,3082.027" />
		<path d="M1125.717,3082.027
		"/>
		<path d="M-0.065,3082.027" />
		<path d="M375.634,3082.027" />
		<path d="M750.675,3082.027" />
		<path d="M1125.717,3082.027
		"/>
		<polygon points="
		-0.166,2998.06 187.354,2891.057 374.875,2998.06 374.875,3212.068 187.354,3319.071 -0.166,3212.068 	"/>
		<polygon points="
		93.594,3051.561 187.354,2998.06 281.116,3051.561 281.116,3158.565 187.354,3212.068 93.594,3158.565 	"/>
		<line x1="-0.166" y1="3212.068" x2="93.594" y2="3158.565"/>
		<line x1="281.116" y1="3158.565" x2="374.875" y2="3212.068"/>
		<line x1="187.354" y1="2998.06" x2="187.354" y2="2891.057"/>
		<line x1="186.697" y1="3212.068" x2="186.697" y2="3105.063"/>
		<line x1="92.937" y1="3051.561" x2="186.697" y2="3105.063"/>
		<line x1="187.354" y1="3105.063" x2="281.116" y2="3051.561"/>
		<polygon points="
		374.875,2998.06 562.396,2891.057 749.917,2998.06 749.917,3212.068 562.396,3319.071 374.875,3212.068 	"/>
		<polygon points="
		468.636,3051.561 562.396,2998.06 656.158,3051.561 656.158,3158.565 562.396,3212.068 468.636,3158.565 	"/>
		<line x1="374.875" y1="3212.068" x2="468.636" y2="3158.565"/>
		<line x1="656.158" y1="3158.565" x2="749.917" y2="3212.068"/>
		<line x1="562.396" y1="2998.06" x2="562.396" y2="2891.057"/>
		<line x1="562.396" y1="3212.068" x2="562.396" y2="3105.063"/>
		<line x1="468.636" y1="3051.561" x2="562.396" y2="3105.063"/>
		<line x1="562.396" y1="3105.063" x2="656.158" y2="3051.561"/>
		<polygon points="
		749.917,2998.06 937.438,2891.057 1124.958,2998.06 1124.958,3212.068 937.438,3319.071 749.917,3212.068 	"/>
		<polygon points="
		843.676,3051.561 937.438,2998.06 1031.199,3051.561 1031.199,3158.565 937.438,3212.068 843.676,3158.565 	"/>
		<line x1="749.917" y1="3212.068" x2="843.676" y2="3158.565"/>
		<line x1="1031.199" y1="3158.565" x2="1124.958" y2="3212.068"/>
		<line x1="937.438" y1="2998.06" x2="937.438" y2="2891.057"/>
		<line x1="937.438" y1="3212.068" x2="937.438" y2="3105.063"/>
		<line x1="843.676" y1="3051.561" x2="937.438" y2="3105.063"/>
		<line x1="937.438" y1="3105.063" x2="1031.199" y2="3051.561"/>
		<polygon points="
		1124.958,2998.06 1312.479,2891.057 1500,2998.06 1500,3212.068 1312.479,3319.071 1124.958,3212.068 	"/>
		<polygon points="
		1218.718,3051.561 1312.479,2998.06 1406.241,3051.561 1406.241,3158.565 1312.479,3212.068 1218.718,3158.565 	"/>
		<line x1="1124.958" y1="3212.068" x2="1218.718" y2="3158.565"/>
		<line x1="1406.241" y1="3158.565" x2="1500" y2="3212.068"/>
		<line x1="1312.479" y1="2998.06" x2="1312.479" y2="2891.057"/>
		<line x1="1312.479" y1="3212.068" x2="1312.479" y2="3105.063"/>
		<line x1="1218.718" y1="3051.561" x2="1312.479" y2="3105.063"/>
		<line x1="1312.479" y1="3105.063" x2="1406.241" y2="3051.561"/>
		<path d="M-0.065,3082.027" />
		<path d="M375.634,3082.027" />
		<path d="M750.675,3082.027" />
		<path d="M1125.717,3082.027
		"/>
		<path d="M-0.065,3082.027" />
		<path d="M375.634,3082.027" />
		<path d="M750.675,3082.027" />
		<path d="M1125.717,3082.027
		"/>
		<path d="M-0.065,3082.027" />
		<path d="M375.634,3082.027" />
		<path d="M750.675,3082.027" />
		<path d="M1125.717,3082.027
		"/>
		<path d="M-0.065,3082.027" />
		<path d="M375.634,3082.027" />
		<path d="M750.675,3082.027" />
		<path d="M1125.717,3082.027
		"/>
		<path d="M-0.065,3082.027" />
		<path d="M375.634,3082.027" />
		<path d="M750.675,3082.027" />
		<path d="M1125.717,3082.027
		"/>
		<path d="M-0.065,3082.027" />
		<path d="M375.634,3082.027" />
		<path d="M750.675,3082.027" />
		<path d="M1125.717,3082.027
		"/>
		<polygon points="
		-188.345,2677.047 -0.824,2570.042 186.697,2677.045 186.697,2891.057 -0.824,2998.06 -188.345,2891.057 	"/>
		<polygon points="
		-94.584,2730.548 -0.824,2677.047 92.938,2730.548 92.938,2837.554 -0.824,2891.057 -94.584,2837.554 	"/>
		<line x1="-188.345" y1="2891.057" x2="-94.584" y2="2837.554"/>
		<line x1="92.938" y1="2837.554" x2="186.697" y2="2891.057"/>
		<line x1="-0.824" y1="2677.047" x2="-0.824" y2="2570.042"/>
		<line x1="-0.824" y1="2891.057" x2="-0.824" y2="2784.051"/>
		<line x1="-94.584" y1="2730.548" x2="-0.824" y2="2784.051"/>
		<line x1="-0.824" y1="2784.051" x2="92.938" y2="2730.548"/>
		<polygon points="
		187.354,2677.047 374.875,2570.042 562.396,2677.045 562.396,2891.057 374.875,2998.06 187.354,2891.057 	"/>
		<polygon points="
		281.115,2730.548 374.875,2677.047 468.637,2730.548 468.637,2837.554 374.875,2891.057 281.115,2837.554 	"/>
		<line x1="187.354" y1="2891.057" x2="281.115" y2="2837.554"/>
		<line x1="468.637" y1="2837.554" x2="562.396" y2="2891.057"/>
		<line x1="374.875" y1="2677.047" x2="374.875" y2="2570.042"/>
		<line x1="374.875" y1="2891.057" x2="374.875" y2="2784.051"/>
		<line x1="281.115" y1="2730.548" x2="374.875" y2="2784.051"/>
		<line x1="374.875" y1="2784.051" x2="468.637" y2="2730.548"/>
		<polygon points="
		562.396,2677.047 749.917,2570.042 937.438,2677.045 937.438,2891.057 749.917,2998.06 562.396,2891.057 	"/>
		<polygon points="
		656.157,2730.548 749.917,2677.047 843.678,2730.548 843.678,2837.554 749.917,2891.057 656.157,2837.554 	"/>
		<line x1="562.396" y1="2891.057" x2="656.157" y2="2837.554"/>
		<line x1="843.678" y1="2837.554" x2="937.438" y2="2891.057"/>
		<line x1="749.917" y1="2677.047" x2="749.917" y2="2570.042"/>
		<line x1="749.917" y1="2891.057" x2="749.917" y2="2784.051"/>
		<line x1="656.157" y1="2730.548" x2="749.917" y2="2784.051"/>
		<line x1="749.917" y1="2784.051" x2="843.678" y2="2730.548"/>
		<polygon points="
		937.438,2677.047 1124.958,2570.042 1312.479,2677.045 1312.479,2891.057 1124.958,2998.06 937.438,2891.057 	"/>
		<polygon points="
		1031.197,2730.548 1124.958,2677.047 1218.72,2730.548 1218.72,2837.554 1124.958,2891.057 1031.197,2837.554 	"/>
		<line x1="937.438" y1="2891.057" x2="1031.197" y2="2837.554"/>
		<line x1="1218.72" y1="2837.554" x2="1312.479" y2="2891.057"/>
		<line x1="1124.958" y1="2677.047" x2="1124.958" y2="2570.042"/>
		<line x1="1124.958" y1="2891.057" x2="1124.958" y2="2784.051"/>
		<line x1="1031.197" y1="2730.548" x2="1124.958" y2="2784.051"/>
		<line x1="1124.958" y1="2784.051" x2="1218.72" y2="2730.548"/>
		<path d="M-0.065,2440.003" />
		<path d="M375.634,2440.003" />
		<path d="M750.675,2440.003" />
		<path d="M1125.717,2440.003
		"/>
		<path d="M-0.065,2440.003" />
		<path d="M375.634,2440.003" />
		<path d="M750.675,2440.003" />
		<path d="M1125.717,2440.003
		"/>
		<polygon points="
		-0.166,2356.033 187.354,2249.03 374.875,2356.033 374.875,2570.042 187.354,2677.047 -0.166,2570.042 	"/>
		<polygon points="
		93.594,2409.536 187.354,2356.033 281.116,2409.536 281.116,2516.541 187.354,2570.042 93.594,2516.541 	"/>
		<line x1="-0.166" y1="2570.042" x2="93.594" y2="2516.541"/>
		<line x1="281.116" y1="2516.541" x2="374.875" y2="2570.042"/>
		<line x1="187.354" y1="2356.033" x2="187.354" y2="2249.03"/>
		<line x1="187.354" y1="2570.042" x2="187.354" y2="2463.039"/>
		<line x1="93.594" y1="2409.536" x2="187.354" y2="2463.039"/>
		<line x1="187.354" y1="2463.039" x2="281.116" y2="2409.536"/>
		<polygon points="
		374.875,2356.033 562.396,2249.03 749.917,2356.033 749.917,2570.042 562.396,2677.047 374.875,2570.042 	"/>
		<polygon points="
		468.636,2409.536 562.396,2356.033 656.158,2409.536 656.158,2516.541 562.396,2570.042 468.636,2516.541 	"/>
		<line x1="374.875" y1="2570.042" x2="468.636" y2="2516.541"/>
		<line x1="656.158" y1="2516.541" x2="749.917" y2="2570.042"/>
		<line x1="562.396" y1="2356.033" x2="562.396" y2="2249.03"/>
		<line x1="562.396" y1="2570.042" x2="562.396" y2="2463.039"/>
		<line x1="468.636" y1="2409.536" x2="562.396" y2="2463.039"/>
		<line x1="562.396" y1="2463.039" x2="656.158" y2="2409.536"/>
		<polygon points="
		749.917,2356.033 937.438,2249.03 1124.958,2356.033 1124.958,2570.042 937.438,2677.047 749.917,2570.042 	"/>
		<polygon points="
		843.676,2409.536 937.438,2356.033 1031.199,2409.536 1031.199,2516.541 937.438,2570.042 843.676,2516.541 	"/>
		<line x1="749.917" y1="2570.042" x2="843.676" y2="2516.541"/>
		<line x1="1031.199" y1="2516.541" x2="1124.958" y2="2570.042"/>
		<line x1="937.438" y1="2356.033" x2="937.438" y2="2249.03"/>
		<line x1="937.438" y1="2570.042" x2="937.438" y2="2463.039"/>
		<line x1="843.676" y1="2409.536" x2="937.438" y2="2463.039"/>
		<line x1="937.438" y1="2463.039" x2="1031.199" y2="2409.536"/>
		<polygon points="
		1124.958,2356.033 1312.479,2249.03 1500,2356.033 1500,2570.042 1312.479,2677.047 1124.958,2570.042 	"/>
		<polygon points="
		1218.718,2409.536 1312.479,2356.033 1406.241,2409.536 1406.241,2516.541 1312.479,2570.042 1218.718,2516.541 	"/>
		<line x1="1124.958" y1="2570.042" x2="1218.718" y2="2516.541"/>
		<line x1="1406.241" y1="2516.541" x2="1500" y2="2570.042"/>
		<line x1="1312.479" y1="2356.033" x2="1312.479" y2="2249.03"/>
		<line x1="1312.479" y1="2570.042" x2="1312.479" y2="2463.039"/>
		<line x1="1218.718" y1="2409.536" x2="1312.479" y2="2463.039"/>
		<line x1="1312.479" y1="2463.039" x2="1406.241" y2="2409.536"/>
		<path d="M-0.065,2440.003" />
		<path d="M375.634,2440.003" />
		<path d="M750.675,2440.003" />
		<path d="M1125.717,2440.003
		"/>
		<path d="M-0.065,2440.003" />
		<path d="M375.634,2440.003" />
		<path d="M750.675,2440.003" />
		<path d="M1125.717,2440.003
		"/>
		<path d="M-0.065,2440.003" />
		<path d="M375.634,2440.003" />
		<path d="M750.675,2440.003" />
		<path d="M1125.717,2440.003
		"/>
		<path d="M-0.065,2440.003" />
		<path d="M375.634,2440.003" />
		<path d="M750.675,2440.003" />
		<path d="M1125.717,2440.003
		"/>
		<path d="M-0.065,2440.003" />
		<path d="M375.634,2440.003" />
		<path d="M750.675,2440.003" />
		<path d="M1125.717,2440.003
		"/>
		<path d="M-0.065,2440.003" />
		<path d="M375.634,2440.003" />
		<path d="M750.675,2440.003" />
		<path d="M1125.717,2440.003
		"/>
		<polygon points="
		-188.345,2035.021 -0.824,1928.018 186.697,2035.021 186.697,2249.03 -0.824,2356.033 -188.345,2249.03 	"/>
		<polygon points="
		-94.584,2088.523 -0.824,2035.021 92.938,2088.523 92.938,2195.527 -0.824,2249.03 -94.584,2195.527 	"/>
		<line x1="-188.345" y1="2249.03" x2="-94.584" y2="2195.527"/>
		<line x1="92.938" y1="2195.527" x2="186.697" y2="2249.03"/>
		<line x1="-0.824" y1="2035.021" x2="-0.824" y2="1928.018"/>
		<line x1="-0.824" y1="2249.03" x2="-0.824" y2="2142.025"/>
		<line x1="-94.584" y1="2088.523" x2="-0.824" y2="2142.025"/>
		<line x1="-0.824" y1="2142.025" x2="92.938" y2="2088.523"/>
		<polygon points="
		187.354,2035.021 374.875,1928.018 562.396,2035.021 562.396,2249.03 374.875,2356.033 187.354,2249.03 	"/>
		<polygon points="
		281.115,2088.523 374.875,2035.021 468.637,2088.523 468.637,2195.527 374.875,2249.03 281.115,2195.527 	"/>
		<line x1="187.354" y1="2249.03" x2="281.115" y2="2195.527"/>
		<line x1="468.637" y1="2195.527" x2="562.396" y2="2249.03"/>
		<line x1="374.875" y1="2035.021" x2="374.875" y2="1928.018"/>
		<line x1="374.875" y1="2249.03" x2="374.875" y2="2142.025"/>
		<line x1="281.115" y1="2088.523" x2="374.875" y2="2142.025"/>
		<line x1="374.875" y1="2142.025" x2="468.637" y2="2088.523"/>
		<polygon points="
		562.396,2035.021 749.917,1928.018 937.438,2035.021 937.438,2249.03 749.917,2356.033 562.396,2249.03 	"/>
		<polygon points="
		656.157,2088.523 749.917,2035.021 843.678,2088.523 843.678,2195.527 749.917,2249.03 656.157,2195.527 	"/>
		<line x1="562.396" y1="2249.03" x2="656.157" y2="2195.527"/>
		<line x1="843.678" y1="2195.527" x2="937.438" y2="2249.03"/>
		<line x1="749.917" y1="2035.021" x2="749.917" y2="1928.018"/>
		<line x1="749.917" y1="2249.03" x2="749.917" y2="2142.025"/>
		<line x1="656.157" y1="2088.523" x2="749.917" y2="2142.025"/>
		<line x1="749.917" y1="2142.025" x2="843.678" y2="2088.523"/>
		<polygon points="
		937.438,2035.021 1124.958,1928.018 1312.479,2035.021 1312.479,2249.03 1124.958,2356.033 937.438,2249.03 	"/>
		<polygon points="
		1031.197,2088.523 1124.958,2035.021 1218.72,2088.523 1218.72,2195.527 1124.958,2249.03 1031.197,2195.527 	"/>
		<line x1="937.438" y1="2249.03" x2="1031.197" y2="2195.527"/>
		<line x1="1218.72" y1="2195.527" x2="1312.479" y2="2249.03"/>
		<line x1="1124.958" y1="2035.021" x2="1124.958" y2="1928.018"/>
		<line x1="1124.958" y1="2249.03" x2="1124.958" y2="2142.025"/>
		<line x1="1031.197" y1="2088.523" x2="1124.958" y2="2142.025"/>
		<line x1="1124.958" y1="2142.025" x2="1218.72" y2="2088.523"/>
		<path d="M-0.065,1797.979" />
		<path d="M375.634,1797.979" />
		<path d="M750.675,1797.979" />
		<path d="M1125.717,1797.979
		"/>
		<path d="M-0.065,1797.979" />
		<path d="M375.634,1797.979" />
		<path d="M750.675,1797.979" />
		<path d="M1125.717,1797.979
		"/>
		<polygon points="
		-0.166,1714.009 187.354,1607.004 374.875,1714.009 374.875,1928.019 187.354,2035.021 -0.166,1928.019 	"/>
		<polygon points="
		93.594,1767.511 187.354,1714.009 281.116,1767.511 281.116,1874.516 187.354,1928.019 93.594,1874.516 	"/>
		<line x1="-0.166" y1="1928.019" x2="93.594" y2="1874.516"/>
		<line x1="281.116" y1="1874.516" x2="374.875" y2="1928.019"/>
		<line x1="186.697" y1="1714.009" x2="186.697" y2="1607.004"/>
		<line x1="186.697" y1="1928.019" x2="186.697" y2="1821.013"/>
		<line x1="93.594" y1="1767.511" x2="187.354" y2="1821.013"/>
		<line x1="187.354" y1="1821.013" x2="281.116" y2="1767.511"/>
		<polygon points="
		374.875,1714.009 562.396,1607.004 749.917,1714.009 749.917,1928.019 562.396,2035.021 374.875,1928.019 	"/>
		<polygon points="
		468.636,1767.511 562.396,1714.009 656.158,1767.511 656.158,1874.516 562.396,1928.019 468.636,1874.516 	"/>
		<line x1="374.875" y1="1928.019" x2="468.636" y2="1874.516"/>
		<line x1="656.158" y1="1874.516" x2="749.917" y2="1928.019"/>
		<line x1="562.396" y1="1714.009" x2="562.396" y2="1607.004"/>
		<line x1="562.396" y1="1928.019" x2="562.396" y2="1821.013"/>
		<line x1="468.636" y1="1767.511" x2="562.396" y2="1821.013"/>
		<line x1="562.396" y1="1821.013" x2="656.158" y2="1767.511"/>
		<polygon points="
		749.917,1714.009 937.438,1607.004 1124.958,1714.009 1124.958,1928.019 937.438,2035.021 749.917,1928.019 	"/>
		<polygon points="
		843.676,1767.511 937.438,1714.009 1031.199,1767.511 1031.199,1874.516 937.438,1928.019 843.676,1874.516 	"/>
		<line x1="749.917" y1="1928.019" x2="843.676" y2="1874.516"/>
		<line x1="1031.199" y1="1874.516" x2="1124.958" y2="1928.019"/>
		<line x1="937.438" y1="1714.009" x2="937.438" y2="1607.004"/>
		<line x1="937.438" y1="1928.019" x2="937.438" y2="1821.013"/>
		<line x1="843.676" y1="1767.511" x2="937.438" y2="1821.013"/>
		<line x1="937.438" y1="1821.013" x2="1031.199" y2="1767.511"/>
		<polygon points="
		1124.958,1714.009 1312.479,1607.004 1500,1714.009 1500,1928.019 1312.479,2035.021 1124.958,1928.019 	"/>
		<polygon points="
		1218.718,1767.511 1312.479,1714.009 1406.241,1767.511 1406.241,1874.516 1312.479,1928.019 1218.718,1874.516 	"/>
		<line x1="1124.958" y1="1928.019" x2="1218.718" y2="1874.516"/>
		<line x1="1406.241" y1="1874.516" x2="1500" y2="1928.019"/>
		<line x1="1312.479" y1="1714.009" x2="1312.479" y2="1607.004"/>
		<line x1="1312.479" y1="1928.019" x2="1312.479" y2="1821.013"/>
		<line x1="1218.718" y1="1767.511" x2="1312.479" y2="1821.013"/>
		<line x1="1312.479" y1="1821.013" x2="1406.241" y2="1767.511"/>
		<path d="M-0.065,1797.979" />
		<path d="M375.634,1797.979" />
		<path d="M750.675,1797.979" />
		<path d="M1125.717,1797.979
		"/>
		<path d="M-0.065,1797.979" />
		<path d="M375.634,1797.979" />
		<path d="M750.675,1797.979" />
		<path d="M1125.717,1797.979
		"/>
		<path d="M-0.065,1797.979" />
		<path d="M375.634,1797.979" />
		<path d="M750.675,1797.979" />
		<path d="M1125.717,1797.979
		"/>
		<path d="M-0.065,1797.979" />
		<path d="M375.634,1797.979" />
		<path d="M750.675,1797.979" />
		<path d="M1125.717,1797.979
		"/>
		<path d="M-0.065,1797.979" />
		<path d="M375.634,1797.979" />
		<path d="M750.675,1797.979" />
		<path d="M1125.717,1797.979
		"/>
		<path d="M-0.065,1797.979" />
		<path d="M375.634,1797.979" />
		<path d="M750.675,1797.979" />
		<path d="M1125.717,1797.979
		"/>
		<polygon points="
		1312.479,2677.047 1500,2570.042 1687.521,2677.045 1687.521,2891.057 1500,2998.06 1312.479,2891.057 	"/>
		<polygon points="
		1406.239,2730.548 1500,2677.047 1593.763,2730.548 1593.763,2837.554 1500,2891.057 1406.239,2837.554 	"/>
		<line x1="1312.479" y1="2891.057" x2="1406.239" y2="2837.554"/>
		<line x1="1593.763" y1="2837.554" x2="1687.521" y2="2891.057"/>
		<line x1="1500" y1="2677.047" x2="1500" y2="2570.042"/>
		<line x1="1500" y1="2891.057" x2="1500" y2="2784.051"/>
		<line x1="1406.239" y1="2730.548" x2="1500" y2="2784.051"/>
		<line x1="1500" y1="2784.051" x2="1593.763" y2="2730.548"/>
		<polygon points="
		1312.479,2035.021 1500,1928.018 1687.521,2035.021 1687.521,2249.03 1500,2356.033 1312.479,2249.03 	"/>
		<polygon points="
		1406.239,2088.523 1500,2035.021 1593.763,2088.523 1593.763,2195.527 1500,2249.03 1406.239,2195.527 	"/>
		<line x1="1312.479" y1="2249.03" x2="1406.239" y2="2195.527"/>
		<line x1="1593.763" y1="2195.527" x2="1687.521" y2="2249.03"/>
		<line x1="1500" y1="2035.021" x2="1500" y2="1928.018"/>
		<line x1="1500" y1="2249.03" x2="1500" y2="2142.025"/>
		<line x1="1406.239" y1="2088.523" x2="1500" y2="2142.025"/>
		<line x1="1500" y1="2142.025" x2="1593.763" y2="2088.523"/>
		<path d="M1876.458,1155.951
		"/>
		<path d="M2251.499,1155.951
		"/>
		<path d="M2626.541,1155.951
		"/>
		<path d="M1876.458,1155.951
		"/>
		<path d="M2251.499,1155.951
		"/>
		<path d="M2626.541,1155.951
		"/>
		<polygon points="
		1500.658,1071.981 1688.179,964.978 1875.699,1071.981 1875.699,1285.991 1688.179,1392.994 1500.658,1285.991 	"/>
		<polygon points="
		1594.418,1125.483 1688.179,1071.981 1781.939,1125.483 1781.939,1232.488 1688.179,1285.991 1594.418,1232.488 	"/>
		<line x1="1500" y1="1285.991" x2="1593.761" y2="1232.488"/>
		<line x1="1781.939" y1="1232.488" x2="1875.699" y2="1285.991"/>
		<line x1="1687.521" y1="1071.981" x2="1687.521" y2="964.978"/>
		<line x1="1594.418" y1="1125.483" x2="1688.179" y2="1178.985"/>
		<line x1="1688.179" y1="1178.985" x2="1781.939" y2="1125.483"/>
		<line x1="1688.179" y1="1071.981" x2="1688.179" y2="964.978"/>
		<line x1="1688.179" y1="1285.991" x2="1688.179" y2="1178.985"/>
		<polygon points="
		1875.699,1071.981 2063.22,964.978 2250.74,1071.981 2250.74,1285.991 2063.22,1392.994 1875.699,1285.991 	"/>
		<polygon points="
		1969.46,1125.483 2063.22,1071.981 2156.981,1125.483 2156.981,1232.488 2063.22,1285.991 1969.46,1232.488 	"/>
		<line x1="1875.699" y1="1285.991" x2="1969.46" y2="1232.488"/>
		<line x1="2156.981" y1="1232.488" x2="2250.74" y2="1285.991"/>
		<line x1="2063.22" y1="1071.981" x2="2063.22" y2="964.978"/>
		<line x1="2063.22" y1="1285.991" x2="2063.22" y2="1178.985"/>
		<line x1="1969.46" y1="1125.483" x2="2063.22" y2="1178.985"/>
		<line x1="2063.22" y1="1178.985" x2="2156.981" y2="1125.483"/>
		<polygon points="
		2250.74,1071.981 2438.262,964.978 2625.782,1071.981 2625.782,1285.991 2438.262,1392.994 2250.74,1285.991 	"/>
		<polygon points="
		2344.501,1125.483 2438.262,1071.981 2532.023,1125.483 2532.023,1232.488 2438.262,1285.991 2344.501,1232.488 	"/>
		<line x1="2250.74" y1="1285.991" x2="2344.501" y2="1232.488"/>
		<line x1="2532.023" y1="1232.488" x2="2625.782" y2="1285.991"/>
		<line x1="2438.262" y1="1071.981" x2="2438.262" y2="964.978"/>
		<line x1="2438.262" y1="1285.991" x2="2438.262" y2="1178.985"/>
		<line x1="2344.501" y1="1125.483" x2="2438.262" y2="1178.985"/>
		<line x1="2438.262" y1="1178.985" x2="2532.023" y2="1125.483"/>
		<polygon points="
		2625.782,1071.981 2813.303,964.978 3000.824,1071.981 3000.824,1285.991 2813.303,1392.994 2625.782,1285.991 	"/>
		<polygon points="
		2719.543,1125.483 2813.303,1071.981 2907.065,1125.483 2907.065,1232.488 2813.303,1285.991 2719.543,1232.488 	"/>
		<line x1="2625.782" y1="1285.991" x2="2719.543" y2="1232.488"/>
		<line x1="2907.065" y1="1232.488" x2="3000.824" y2="1285.991"/>
		<line x1="2813.303" y1="1071.981" x2="2813.303" y2="964.978"/>
		<line x1="2813.303" y1="1285.991" x2="2813.303" y2="1178.985"/>
		<line x1="2719.543" y1="1125.483" x2="2813.303" y2="1178.985"/>
		<line x1="2813.303" y1="1178.985" x2="2907.065" y2="1125.483"/>
		<path d="M1876.458,1155.951
		"/>
		<path d="M2251.499,1155.951
		"/>
		<path d="M2626.541,1155.951
		"/>
		<path d="M1876.458,1155.951
		"/>
		<path d="M2251.499,1155.951
		"/>
		<path d="M2626.541,1155.951
		"/>
		<path d="M1876.458,1155.951
		"/>
		<path d="M2251.499,1155.951
		"/>
		<path d="M2626.541,1155.951
		"/>
		<path d="M1876.458,1155.951
		"/>
		<path d="M2251.499,1155.951
		"/>
		<path d="M2626.541,1155.951
		"/>
		<path d="M1876.458,1155.951
		"/>
		<path d="M2251.499,1155.951
		"/>
		<path d="M2626.541,1155.951
		"/>
		<path d="M1876.458,1155.951
		"/>
		<path d="M2251.499,1155.951
		"/>
		<path d="M2626.541,1155.951
		"/>
		<polygon points="
		1688.179,750.969 1875.699,643.965 2063.22,750.968 2063.22,964.978 1875.699,1071.981 1688.179,964.978 	"/>
		<polygon points="
		1781.938,804.471 1875.699,750.969 1969.461,804.471 1969.461,911.475 1875.699,964.978 1781.938,911.475 	"/>
		<line x1="1688.179" y1="964.978" x2="1781.938" y2="911.475"/>
		<line x1="1969.461" y1="911.475" x2="2063.22" y2="964.978"/>
		<line x1="1875.699" y1="750.969" x2="1875.699" y2="643.965"/>
		<line x1="1875.699" y1="964.978" x2="1875.699" y2="857.973"/>
		<line x1="1781.938" y1="804.471" x2="1875.699" y2="857.973"/>
		<line x1="1875.699" y1="857.973" x2="1969.461" y2="804.471"/>
		<polygon points="
		2063.22,750.969 2250.74,643.965 2438.262,750.968 2438.262,964.978 2250.74,1071.981 2063.22,964.978 	"/>
		<polygon points="
		2156.98,804.471 2250.74,750.969 2344.503,804.471 2344.503,911.475 2250.74,964.978 2156.98,911.475 	"/>
		<line x1="2063.22" y1="964.978" x2="2156.98" y2="911.475"/>
		<line x1="2344.503" y1="911.475" x2="2438.262" y2="964.978"/>
		<line x1="2250.74" y1="750.969" x2="2250.74" y2="643.965"/>
		<line x1="2250.74" y1="964.978" x2="2250.74" y2="857.973"/>
		<line x1="2156.98" y1="804.471" x2="2250.74" y2="857.973"/>
		<line x1="2250.74" y1="857.973" x2="2344.503" y2="804.471"/>
		<polygon points="
		2438.262,750.969 2625.782,643.965 2813.303,750.968 2813.303,964.978 2625.782,1071.981 2438.262,964.978 	"/>
		<polygon points="
		2532.021,804.471 2625.782,750.969 2719.545,804.471 2719.545,911.475 2625.782,964.978 2532.021,911.475 	"/>
		<line x1="2438.262" y1="964.978" x2="2532.021" y2="911.475"/>
		<line x1="2719.545" y1="911.475" x2="2813.303" y2="964.978"/>
		<line x1="2625.782" y1="750.969" x2="2625.782" y2="643.965"/>
		<line x1="2625.782" y1="964.978" x2="2625.782" y2="857.973"/>
		<line x1="2532.021" y1="804.471" x2="2625.782" y2="857.973"/>
		<line x1="2625.782" y1="857.973" x2="2719.545" y2="804.471"/>
		<path d="M1876.458,513.925" />
		<path d="M2251.499,513.925" />
		<path d="M2626.541,513.925" />
		<path d="M1876.458,513.925" />
		<path d="M2251.499,513.925" />
		<path d="M2626.541,513.925" />
		<polygon points="
		1500.658,429.956 1688.179,322.953 1875.699,429.956 1875.699,643.965 1688.179,750.969 1500.658,643.965 	"/>
		<polygon points="
		1594.418,483.458 1688.179,429.956 1781.939,483.458 1781.939,590.463 1688.179,643.965 1594.418,590.463 	"/>
		<line x1="1500" y1="643.965" x2="1593.761" y2="590.463"/>
		<line x1="1781.939" y1="590.463" x2="1875.699" y2="643.965"/>
		<line x1="1687.521" y1="429.956" x2="1687.521" y2="322.953"/>
		<line x1="1687.521" y1="643.965" x2="1687.521" y2="536.961"/>
		<line x1="1593.761" y1="483.458" x2="1687.521" y2="536.961"/>
		<line x1="1688.179" y1="536.961" x2="1781.939" y2="483.458"/>
		<polygon points="
		1875.699,429.956 2063.22,322.953 2250.74,429.956 2250.74,643.965 2063.22,750.969 1875.699,643.965 	"/>
		<polygon points="
		1969.46,483.458 2063.22,429.956 2156.981,483.458 2156.981,590.463 2063.22,643.965 1969.46,590.463 	"/>
		<line x1="1875.699" y1="643.965" x2="1969.46" y2="590.463"/>
		<line x1="2156.981" y1="590.463" x2="2250.74" y2="643.965"/>
		<line x1="2063.22" y1="429.956" x2="2063.22" y2="322.953"/>
		<line x1="2063.22" y1="643.965" x2="2063.22" y2="536.961"/>
		<line x1="1969.46" y1="483.458" x2="2063.22" y2="536.961"/>
		<line x1="2063.22" y1="536.961" x2="2156.981" y2="483.458"/>
		<polygon points="
		2250.74,429.956 2438.262,322.953 2625.782,429.956 2625.782,643.965 2438.262,750.969 2250.74,643.965 	"/>
		<polygon points="
		2344.501,483.458 2438.262,429.956 2532.023,483.458 2532.023,590.463 2438.262,643.965 2344.501,590.463 	"/>
		<line x1="2250.74" y1="643.965" x2="2344.501" y2="590.463"/>
		<line x1="2532.023" y1="590.463" x2="2625.782" y2="643.965"/>
		<line x1="2438.262" y1="429.956" x2="2438.262" y2="322.953"/>
		<line x1="2438.262" y1="643.965" x2="2438.262" y2="536.961"/>
		<line x1="2344.501" y1="483.458" x2="2438.262" y2="536.961"/>
		<line x1="2438.262" y1="536.961" x2="2532.023" y2="483.458"/>
		<polygon points="
		2625.782,429.956 2813.303,322.953 3000.824,429.956 3000.824,643.965 2813.303,750.969 2625.782,643.965 	"/>
		<polygon points="
		2719.543,483.458 2813.303,429.956 2907.065,483.458 2907.065,590.463 2813.303,643.965 2719.543,590.463 	"/>
		<line x1="2625.782" y1="643.965" x2="2719.543" y2="590.463"/>
		<line x1="2907.065" y1="590.463" x2="3000.824" y2="643.965"/>
		<line x1="2813.303" y1="429.956" x2="2813.303" y2="322.953"/>
		<line x1="2813.303" y1="643.965" x2="2813.303" y2="536.961"/>
		<line x1="2719.543" y1="483.458" x2="2813.303" y2="536.961"/>
		<line x1="2813.303" y1="536.961" x2="2907.065" y2="483.458"/>
		<path d="M1876.458,513.925" />
		<path d="M2251.499,513.925" />
		<path d="M2626.541,513.925" />
		<path d="M1876.458,513.925" />
		<path d="M2251.499,513.925" />
		<path d="M2626.541,513.925" />
		<path d="M1876.458,513.925" />
		<path d="M2251.499,513.925" />
		<path d="M2626.541,513.925" />
		<path d="M1876.458,513.925" />
		<path d="M2251.499,513.925" />
		<path d="M2626.541,513.925" />
		<path d="M1876.458,513.925" />
		<path d="M2251.499,513.925" />
		<path d="M2626.541,513.925" />
		<path d="M1876.458,513.925" />
		<path d="M2251.499,513.925" />
		<path d="M2626.541,513.925" />
		<polygon points="
		1688.179,108.944 1875.699,1.939 2063.22,108.943 2063.22,322.953 1875.699,429.956 1688.179,322.953 	"/>
		<polygon points="
		1781.938,162.446 1875.699,108.944 1969.461,162.446 1969.461,269.45 1875.699,322.953 1781.938,269.45 	"/>
		<line x1="1688.179" y1="322.953" x2="1781.938" y2="269.45"/>
		<line x1="1969.461" y1="269.45" x2="2063.22" y2="322.953"/>
		<line x1="1875.699" y1="108.944" x2="1875.699" y2="1.939"/>
		<line x1="1875.699" y1="322.953" x2="1875.699" y2="215.948"/>
		<line x1="1781.938" y1="162.446" x2="1875.699" y2="215.948"/>
		<line x1="1875.699" y1="215.948" x2="1969.461" y2="162.446"/>
		<polygon points="
		2063.22,108.944 2250.74,1.939 2438.262,108.943 2438.262,322.953 2250.74,429.956 2063.22,322.953 	"/>
		<polygon points="
		2156.98,162.446 2250.74,108.944 2344.503,162.446 2344.503,269.45 2250.74,322.953 2156.98,269.45 	"/>
		<line x1="2063.22" y1="322.953" x2="2156.98" y2="269.45"/>
		<line x1="2344.503" y1="269.45" x2="2438.262" y2="322.953"/>
		<line x1="2250.74" y1="108.944" x2="2250.74" y2="1.939"/>
		<line x1="2250.74" y1="322.953" x2="2250.74" y2="215.948"/>
		<line x1="2156.98" y1="162.446" x2="2250.74" y2="215.948"/>
		<line x1="2250.74" y1="215.948" x2="2344.503" y2="162.446"/>
		<polygon points="
		2438.262,108.944 2625.782,1.939 2813.303,108.943 2813.303,322.953 2625.782,429.956 2438.262,322.953 	"/>
		<polygon points="
		2532.021,162.446 2625.782,108.944 2719.545,162.446 2719.545,269.45 2625.782,322.953 2532.021,269.45 	"/>
		<line x1="2438.262" y1="322.953" x2="2532.021" y2="269.45"/>
		<line x1="2719.545" y1="269.45" x2="2813.303" y2="322.953"/>
		<line x1="2625.782" y1="108.944" x2="2625.782" y2="1.939"/>
		<line x1="2625.782" y1="322.953" x2="2625.782" y2="215.948"/>
		<line x1="2532.021" y1="162.446" x2="2625.782" y2="215.948"/>
		<line x1="2625.782" y1="215.948" x2="2719.545" y2="162.446"/>
		<path d="M1876.458-128.1"/>
		<path d="M2251.499-128.1"/>
		<path d="M2626.541-128.1"/>
		<path d="M1876.458-128.1"/>
		<path d="M2251.499-128.1"/>
		<path d="M2626.541-128.1"/>
		<polygon points="
		1500.658,-212.069 1688.179,-319.073 1875.699,-212.069 1875.699,1.94 1688.179,108.944 1500.658,1.94 	"/>
		<polygon points="
		1594.418,-158.567 1688.179,-212.069 1781.939,-158.567 1781.939,-51.562 1688.179,1.94 1594.418,-51.562 	"/>
		<line x1="1500" y1="1.94" x2="1593.761" y2="-51.562"/>
		<line x1="1781.939" y1="-51.562" x2="1875.699" y2="1.94"/>
		<line x1="1687.521" y1="-212.069" x2="1687.521" y2="-319.073"/>
		<line x1="1687.521" y1="1.94" x2="1687.521" y2="-105.064"/>
		<line x1="1593.761" y1="-158.567" x2="1687.521" y2="-105.064"/>
		<line x1="1688.179" y1="-105.064" x2="1781.939" y2="-158.567"/>
		<polygon points="
		1875.699,-212.069 2063.22,-319.073 2250.74,-212.069 2250.74,1.94 2063.22,108.944 1875.699,1.94 	"/>
		<polygon points="
		1969.46,-158.567 2063.22,-212.069 2156.981,-158.567 2156.981,-51.562 2063.22,1.94 1969.46,-51.562 	"/>
		<line x1="1875.699" y1="1.94" x2="1969.46" y2="-51.562"/>
		<line x1="2156.981" y1="-51.562" x2="2250.74" y2="1.94"/>
		<line x1="2063.22" y1="-212.069" x2="2063.22" y2="-319.073"/>
		<line x1="2063.22" y1="1.94" x2="2063.22" y2="-105.064"/>
		<line x1="1969.46" y1="-158.567" x2="2063.22" y2="-105.064"/>
		<line x1="2063.22" y1="-105.064" x2="2156.981" y2="-158.567"/>
		<polygon points="
		2250.74,-212.069 2438.262,-319.073 2625.782,-212.069 2625.782,1.94 2438.262,108.944 2250.74,1.94 	"/>
		<polygon points="
		2344.501,-158.567 2438.262,-212.069 2532.023,-158.567 2532.023,-51.562 2438.262,1.94 2344.501,-51.562 	"/>
		<line x1="2250.74" y1="1.94" x2="2344.501" y2="-51.562"/>
		<line x1="2532.023" y1="-51.562" x2="2625.782" y2="1.94"/>
		<line x1="2438.262" y1="-212.069" x2="2438.262" y2="-319.073"/>
		<line x1="2438.262" y1="1.94" x2="2438.262" y2="-105.064"/>
		<line x1="2344.501" y1="-158.567" x2="2438.262" y2="-105.064"/>
		<line x1="2438.262" y1="-105.064" x2="2532.023" y2="-158.567"/>
		<polygon points="
		2625.782,-212.069 2813.303,-319.073 3000.824,-212.069 3000.824,1.94 2813.303,108.944 2625.782,1.94 	"/>
		<polygon points="
		2719.543,-158.567 2813.303,-212.069 2907.065,-158.567 2907.065,-51.562 2813.303,1.94 2719.543,-51.562 	"/>
		<line x1="2625.782" y1="1.94" x2="2719.543" y2="-51.562"/>
		<line x1="2907.065" y1="-51.562" x2="3000.824" y2="1.94"/>
		<line x1="2813.303" y1="-212.069" x2="2813.303" y2="-319.073"/>
		<line x1="2813.303" y1="1.94" x2="2813.303" y2="-105.064"/>
		<line x1="2719.543" y1="-158.567" x2="2813.303" y2="-105.064"/>
		<line x1="2813.303" y1="-105.064" x2="2907.065" y2="-158.567"/>
		<path d="M1876.458-128.1"/>
		<path d="M2251.499-128.1"/>
		<path d="M2626.541-128.1"/>
		<path d="M1876.458-128.1"/>
		<path d="M2251.499-128.1"/>
		<path d="M2626.541-128.1"/>
		<path d="M1876.458-128.1"/>
		<path d="M2251.499-128.1"/>
		<path d="M2626.541-128.1"/>
		<path d="M1876.458-128.1"/>
		<path d="M2251.499-128.1"/>
		<path d="M2626.541-128.1"/>
		<path d="M1876.458-128.1"/>
		<path d="M2251.499-128.1"/>
		<path d="M2626.541-128.1"/>
		<path d="M1876.458-128.1"/>
		<path d="M2251.499-128.1"/>
		<path d="M2626.541-128.1"/>
		<polygon points="
		2813.303,750.969 3000.824,643.965 3188.345,750.968 3188.345,964.978 3000.824,1071.981 2813.303,964.978 	"/>
		<polygon points="
		2907.063,804.471 3000.824,750.969 3094.586,804.471 3094.586,911.475 3000.824,964.978 2907.063,911.475 	"/>
		<line x1="2813.303" y1="964.978" x2="2907.063" y2="911.475"/>
		<line x1="3094.586" y1="911.475" x2="3188.345" y2="964.978"/>
		<line x1="3000.824" y1="750.969" x2="3000.824" y2="643.965"/>
		<line x1="3000.824" y1="964.978" x2="3000.824" y2="857.973"/>
		<line x1="2907.063" y1="804.471" x2="3000.824" y2="857.973"/>
		<line x1="3000.824" y1="857.973" x2="3094.586" y2="804.471"/>
		<polygon points="
		2813.303,108.944 3000.824,1.939 3188.345,108.943 3188.345,322.953 3000.824,429.956 2813.303,322.953 	"/>
		<polygon points="
		2907.063,162.446 3000.824,108.944 3094.586,162.446 3094.586,269.45 3000.824,322.953 2907.063,269.45 	"/>
		<line x1="2813.303" y1="322.953" x2="2907.063" y2="269.45"/>
		<line x1="3094.586" y1="269.45" x2="3188.345" y2="322.953"/>
		<line x1="3000.824" y1="108.944" x2="3000.824" y2="1.939"/>
		<line x1="3000.824" y1="322.953" x2="3000.824" y2="215.948"/>
		<line x1="2907.063" y1="162.446" x2="3000.824" y2="215.948"/>
		<line x1="3000.824" y1="215.948" x2="3094.586" y2="162.446"/>
		<polygon points="
		1688.179,1392.994 1875.699,1285.991 2063.22,1392.994 2063.22,1607.004 1875.699,1714.008 1688.179,1607.004 	"/>
		<polygon points="
		1781.938,1446.497 1875.699,1392.994 1969.461,1446.497 1969.461,1553.502 1875.699,1607.004 1781.938,1553.502 	"/>
		<line x1="1688.179" y1="1607.004" x2="1781.938" y2="1553.502"/>
		<line x1="1969.461" y1="1553.502" x2="2063.22" y2="1607.004"/>
		<line x1="1875.699" y1="1392.994" x2="1875.699" y2="1285.991"/>
		<line x1="1875.699" y1="1607.004" x2="1875.699" y2="1499.999"/>
		<line x1="1781.938" y1="1446.497" x2="1875.699" y2="1499.999"/>
		<line x1="1875.699" y1="1499.999" x2="1969.461" y2="1446.497"/>
		<polygon points="
		2063.22,1392.994 2250.74,1285.991 2438.262,1392.994 2438.262,1607.004 2250.74,1714.008 2063.22,1607.004 	"/>
		<polygon points="
		2156.98,1446.497 2250.74,1392.994 2344.503,1446.497 2344.503,1553.502 2250.74,1607.004 2156.98,1553.502 	"/>
		<line x1="2063.22" y1="1607.004" x2="2156.98" y2="1553.502"/>
		<line x1="2344.503" y1="1553.502" x2="2438.262" y2="1607.004"/>
		<line x1="2250.74" y1="1392.994" x2="2250.74" y2="1285.991"/>
		<line x1="2250.74" y1="1607.004" x2="2250.74" y2="1499.999"/>
		<line x1="2156.98" y1="1446.497" x2="2250.74" y2="1499.999"/>
		<line x1="2250.74" y1="1499.999" x2="2344.503" y2="1446.497"/>
		<polygon points="
		2438.262,1392.994 2625.782,1285.991 2813.303,1392.994 2813.303,1607.004 2625.782,1714.008 2438.262,1607.004 	"/>
		<polygon points="
		2532.021,1446.497 2625.782,1392.994 2719.545,1446.497 2719.545,1553.502 2625.782,1607.004 2532.021,1553.502 	"/>
		<line x1="2438.262" y1="1607.004" x2="2532.021" y2="1553.502"/>
		<line x1="2719.545" y1="1553.502" x2="2813.303" y2="1607.004"/>
		<line x1="2625.782" y1="1392.994" x2="2625.782" y2="1285.991"/>
		<line x1="2625.782" y1="1607.004" x2="2625.782" y2="1499.999"/>
		<line x1="2532.021" y1="1446.497" x2="2625.782" y2="1499.999"/>
		<line x1="2625.782" y1="1499.999" x2="2719.545" y2="1446.497"/>
		<polygon points="
		2813.303,1392.994 3000.824,1285.991 3188.345,1392.994 3188.345,1607.004 3000.824,1714.008 2813.303,1607.004 	"/>
		<polygon points="
		2907.063,1446.497 3000.824,1392.994 3094.586,1446.497 3094.586,1553.502 3000.824,1607.004 2907.063,1553.502 	"/>
		<line x1="2813.303" y1="1607.004" x2="2907.063" y2="1553.502"/>
		<line x1="3094.586" y1="1553.502" x2="3188.345" y2="1607.004"/>
		<line x1="3000.824" y1="1392.994" x2="3000.824" y2="1285.991"/>
		<line x1="3000.824" y1="1607.004" x2="3000.824" y2="1499.999"/>
		<line x1="2907.063" y1="1446.497" x2="3000.824" y2="1499.999"/>
		<line x1="3000.824" y1="1499.999" x2="3094.586" y2="1446.497"/>
		<path d="M1876.458,3082.027
		"/>
		<path d="M2251.499,3082.027
		"/>
		<path d="M2626.541,3082.027
		"/>
		<path d="M1876.458,3082.027
		"/>
		<path d="M2251.499,3082.027
		"/>
		<path d="M2626.541,3082.027
		"/>
		<polygon points="
		1500.658,2998.06 1688.179,2891.057 1875.699,2998.06 1875.699,3212.068 1688.179,3319.071 1500.658,3212.068 	"/>
		<polygon points="
		1594.418,3051.561 1688.179,2998.06 1781.939,3051.561 1781.939,3158.565 1688.179,3212.068 1594.418,3158.565 	"/>
		<line x1="1500.658" y1="3212.068" x2="1594.418" y2="3158.565"/>
		<line x1="1781.939" y1="3158.565" x2="1875.699" y2="3212.068"/>
		<line x1="1688.179" y1="2998.06" x2="1688.179" y2="2891.057"/>
		<line x1="1687.521" y1="3212.068" x2="1687.521" y2="3105.063"/>
		<line x1="1593.761" y1="3051.561" x2="1687.521" y2="3105.063"/>
		<line x1="1688.179" y1="3105.063" x2="1781.939" y2="3051.561"/>
		<polygon points="
		1875.699,2998.06 2063.22,2891.057 2250.74,2998.06 2250.74,3212.068 2063.22,3319.071 1875.699,3212.068 	"/>
		<polygon points="
		1969.46,3051.561 2063.22,2998.06 2156.981,3051.561 2156.981,3158.565 2063.22,3212.068 1969.46,3158.565 	"/>
		<line x1="1875.699" y1="3212.068" x2="1969.46" y2="3158.565"/>
		<line x1="2156.981" y1="3158.565" x2="2250.74" y2="3212.068"/>
		<line x1="2063.22" y1="2998.06" x2="2063.22" y2="2891.057"/>
		<line x1="2063.22" y1="3212.068" x2="2063.22" y2="3105.063"/>
		<line x1="1969.46" y1="3051.561" x2="2063.22" y2="3105.063"/>
		<line x1="2063.22" y1="3105.063" x2="2156.981" y2="3051.561"/>
		<polygon points="
		2250.74,2998.06 2438.262,2891.057 2625.782,2998.06 2625.782,3212.068 2438.262,3319.071 2250.74,3212.068 	"/>
		<polygon points="
		2344.501,3051.561 2438.262,2998.06 2532.023,3051.561 2532.023,3158.565 2438.262,3212.068 2344.501,3158.565 	"/>
		<line x1="2250.74" y1="3212.068" x2="2344.501" y2="3158.565"/>
		<line x1="2532.023" y1="3158.565" x2="2625.782" y2="3212.068"/>
		<line x1="2438.262" y1="2998.06" x2="2438.262" y2="2891.057"/>
		<line x1="2438.262" y1="3212.068" x2="2438.262" y2="3105.063"/>
		<line x1="2344.501" y1="3051.561" x2="2438.262" y2="3105.063"/>
		<line x1="2438.262" y1="3105.063" x2="2532.023" y2="3051.561"/>
		<polygon points="
		2625.782,2998.06 2813.303,2891.057 3000.824,2998.06 3000.824,3212.068 2813.303,3319.071 2625.782,3212.068 	"/>
		<polygon points="
		2719.543,3051.561 2813.303,2998.06 2907.065,3051.561 2907.065,3158.565 2813.303,3212.068 2719.543,3158.565 	"/>
		<line x1="2625.782" y1="3212.068" x2="2719.543" y2="3158.565"/>
		<line x1="2907.065" y1="3158.565" x2="3000.824" y2="3212.068"/>
		<line x1="2813.303" y1="2998.06" x2="2813.303" y2="2891.057"/>
		<line x1="2813.303" y1="3212.068" x2="2813.303" y2="3105.063"/>
		<line x1="2719.543" y1="3051.561" x2="2813.303" y2="3105.063"/>
		<line x1="2813.303" y1="3105.063" x2="2907.065" y2="3051.561"/>
		<path d="M1876.458,3082.027
		"/>
		<path d="M2251.499,3082.027
		"/>
		<path d="M2626.541,3082.027
		"/>
		<path d="M1876.458,3082.027
		"/>
		<path d="M2251.499,3082.027
		"/>
		<path d="M2626.541,3082.027
		"/>
		<path d="M1876.458,3082.027
		"/>
		<path d="M2251.499,3082.027
		"/>
		<path d="M2626.541,3082.027
		"/>
		<path d="M1876.458,3082.027
		"/>
		<path d="M2251.499,3082.027
		"/>
		<path d="M2626.541,3082.027
		"/>
		<path d="M1876.458,3082.027
		"/>
		<path d="M2251.499,3082.027
		"/>
		<path d="M2626.541,3082.027
		"/>
		<path d="M1876.458,3082.027
		"/>
		<path d="M2251.499,3082.027
		"/>
		<path d="M2626.541,3082.027
		"/>
		<polygon points="
		1688.179,2677.047 1875.699,2570.042 2063.22,2677.045 2063.22,2891.057 1875.699,2998.06 1688.179,2891.057 	"/>
		<polygon points="
		1781.938,2730.548 1875.699,2677.047 1969.461,2730.548 1969.461,2837.554 1875.699,2891.057 1781.938,2837.554 	"/>
		<line x1="1688.179" y1="2891.057" x2="1781.938" y2="2837.554"/>
		<line x1="1969.461" y1="2837.554" x2="2063.22" y2="2891.057"/>
		<line x1="1875.699" y1="2677.047" x2="1875.699" y2="2570.042"/>
		<line x1="1875.699" y1="2891.057" x2="1875.699" y2="2784.051"/>
		<line x1="1781.938" y1="2730.548" x2="1875.699" y2="2784.051"/>
		<line x1="1875.699" y1="2784.051" x2="1969.461" y2="2730.548"/>
		<polygon points="
		2063.22,2677.047 2250.74,2570.042 2438.262,2677.045 2438.262,2891.057 2250.74,2998.06 2063.22,2891.057 	"/>
		<polygon points="
		2156.98,2730.548 2250.74,2677.047 2344.503,2730.548 2344.503,2837.554 2250.74,2891.057 2156.98,2837.554 	"/>
		<line x1="2063.22" y1="2891.057" x2="2156.98" y2="2837.554"/>
		<line x1="2344.503" y1="2837.554" x2="2438.262" y2="2891.057"/>
		<line x1="2250.74" y1="2677.047" x2="2250.74" y2="2570.042"/>
		<line x1="2250.74" y1="2891.057" x2="2250.74" y2="2784.051"/>
		<line x1="2156.98" y1="2730.548" x2="2250.74" y2="2784.051"/>
		<line x1="2250.74" y1="2784.051" x2="2344.503" y2="2730.548"/>
		<polygon points="
		2438.262,2677.047 2625.782,2570.042 2813.303,2677.045 2813.303,2891.057 2625.782,2998.06 2438.262,2891.057 	"/>
		<polygon points="
		2532.021,2730.548 2625.782,2677.047 2719.545,2730.548 2719.545,2837.554 2625.782,2891.057 2532.021,2837.554 	"/>
		<line x1="2438.262" y1="2891.057" x2="2532.021" y2="2837.554"/>
		<line x1="2719.545" y1="2837.554" x2="2813.303" y2="2891.057"/>
		<line x1="2625.782" y1="2677.047" x2="2625.782" y2="2570.042"/>
		<line x1="2625.782" y1="2891.057" x2="2625.782" y2="2784.051"/>
		<line x1="2532.021" y1="2730.548" x2="2625.782" y2="2784.051"/>
		<line x1="2625.782" y1="2784.051" x2="2719.545" y2="2730.548"/>
		<path d="M1876.458,2440.003
		"/>
		<path d="M2251.499,2440.003
		"/>
		<path d="M2626.541,2440.003
		"/>
		<path d="M1876.458,2440.003
		"/>
		<path d="M2251.499,2440.003
		"/>
		<path d="M2626.541,2440.003
		"/>
		<polygon points="
		1500.658,2356.033 1688.179,2249.03 1875.699,2356.033 1875.699,2570.042 1688.179,2677.047 1500.658,2570.042 	"/>
		<polygon points="
		1594.418,2409.536 1688.179,2356.033 1781.939,2409.536 1781.939,2516.541 1688.179,2570.042 1594.418,2516.541 	"/>
		<line x1="1500.658" y1="2570.042" x2="1594.418" y2="2516.541"/>
		<line x1="1781.939" y1="2516.541" x2="1875.699" y2="2570.042"/>
		<line x1="1688.179" y1="2356.033" x2="1688.179" y2="2249.03"/>
		<line x1="1688.179" y1="2570.042" x2="1688.179" y2="2463.039"/>
		<line x1="1594.418" y1="2409.536" x2="1688.179" y2="2463.039"/>
		<line x1="1688.179" y1="2463.039" x2="1781.939" y2="2409.536"/>
		<polygon points="
		1875.699,2356.033 2063.22,2249.03 2250.74,2356.033 2250.74,2570.042 2063.22,2677.047 1875.699,2570.042 	"/>
		<polygon points="
		1969.46,2409.536 2063.22,2356.033 2156.981,2409.536 2156.981,2516.541 2063.22,2570.042 1969.46,2516.541 	"/>
		<line x1="1875.699" y1="2570.042" x2="1969.46" y2="2516.541"/>
		<line x1="2156.981" y1="2516.541" x2="2250.74" y2="2570.042"/>
		<line x1="2063.22" y1="2356.033" x2="2063.22" y2="2249.03"/>
		<line x1="2063.22" y1="2570.042" x2="2063.22" y2="2463.039"/>
		<line x1="1969.46" y1="2409.536" x2="2063.22" y2="2463.039"/>
		<line x1="2063.22" y1="2463.039" x2="2156.981" y2="2409.536"/>
		<polygon points="
		2250.74,2356.033 2438.262,2249.03 2625.782,2356.033 2625.782,2570.042 2438.262,2677.047 2250.74,2570.042 	"/>
		<polygon points="
		2344.501,2409.536 2438.262,2356.033 2532.023,2409.536 2532.023,2516.541 2438.262,2570.042 2344.501,2516.541 	"/>
		<line x1="2250.74" y1="2570.042" x2="2344.501" y2="2516.541"/>
		<line x1="2532.023" y1="2516.541" x2="2625.782" y2="2570.042"/>
		<line x1="2438.262" y1="2356.033" x2="2438.262" y2="2249.03"/>
		<line x1="2438.262" y1="2570.042" x2="2438.262" y2="2463.039"/>
		<line x1="2344.501" y1="2409.536" x2="2438.262" y2="2463.039"/>
		<line x1="2438.262" y1="2463.039" x2="2532.023" y2="2409.536"/>
		<polygon points="
		2625.782,2356.033 2813.303,2249.03 3000.824,2356.033 3000.824,2570.042 2813.303,2677.047 2625.782,2570.042 	"/>
		<polygon points="
		2719.543,2409.536 2813.303,2356.033 2907.065,2409.536 2907.065,2516.541 2813.303,2570.042 2719.543,2516.541 	"/>
		<line x1="2625.782" y1="2570.042" x2="2719.543" y2="2516.541"/>
		<line x1="2907.065" y1="2516.541" x2="3000.824" y2="2570.042"/>
		<line x1="2813.303" y1="2356.033" x2="2813.303" y2="2249.03"/>
		<line x1="2813.303" y1="2570.042" x2="2813.303" y2="2463.039"/>
		<line x1="2719.543" y1="2409.536" x2="2813.303" y2="2463.039"/>
		<line x1="2813.303" y1="2463.039" x2="2907.065" y2="2409.536"/>
		<path d="M1876.458,2440.003
		"/>
		<path d="M2251.499,2440.003
		"/>
		<path d="M2626.541,2440.003
		"/>
		<path d="M1876.458,2440.003
		"/>
		<path d="M2251.499,2440.003
		"/>
		<path d="M2626.541,2440.003
		"/>
		<path d="M1876.458,2440.003
		"/>
		<path d="M2251.499,2440.003
		"/>
		<path d="M2626.541,2440.003
		"/>
		<path d="M1876.458,2440.003
		"/>
		<path d="M2251.499,2440.003
		"/>
		<path d="M2626.541,2440.003
		"/>
		<path d="M1876.458,2440.003
		"/>
		<path d="M2251.499,2440.003
		"/>
		<path d="M2626.541,2440.003
		"/>
		<path d="M1876.458,2440.003
		"/>
		<path d="M2251.499,2440.003
		"/>
		<path d="M2626.541,2440.003
		"/>
		<polygon points="
		1688.179,2035.021 1875.699,1928.018 2063.22,2035.021 2063.22,2249.03 1875.699,2356.033 1688.179,2249.03 	"/>
		<polygon points="
		1781.938,2088.523 1875.699,2035.021 1969.461,2088.523 1969.461,2195.527 1875.699,2249.03 1781.938,2195.527 	"/>
		<line x1="1688.179" y1="2249.03" x2="1781.938" y2="2195.527"/>
		<line x1="1969.461" y1="2195.527" x2="2063.22" y2="2249.03"/>
		<line x1="1875.699" y1="2035.021" x2="1875.699" y2="1928.018"/>
		<line x1="1875.699" y1="2249.03" x2="1875.699" y2="2142.025"/>
		<line x1="1781.938" y1="2088.523" x2="1875.699" y2="2142.025"/>
		<line x1="1875.699" y1="2142.025" x2="1969.461" y2="2088.523"/>
		<polygon points="
		2063.22,2035.021 2250.74,1928.018 2438.262,2035.021 2438.262,2249.03 2250.74,2356.033 2063.22,2249.03 	"/>
		<polygon points="
		2156.98,2088.523 2250.74,2035.021 2344.503,2088.523 2344.503,2195.527 2250.74,2249.03 2156.98,2195.527 	"/>
		<line x1="2063.22" y1="2249.03" x2="2156.98" y2="2195.527"/>
		<line x1="2344.503" y1="2195.527" x2="2438.262" y2="2249.03"/>
		<line x1="2250.74" y1="2035.021" x2="2250.74" y2="1928.018"/>
		<line x1="2250.74" y1="2249.03" x2="2250.74" y2="2142.025"/>
		<line x1="2156.98" y1="2088.523" x2="2250.74" y2="2142.025"/>
		<line x1="2250.74" y1="2142.025" x2="2344.503" y2="2088.523"/>
		<polygon points="
		2438.262,2035.021 2625.782,1928.018 2813.303,2035.021 2813.303,2249.03 2625.782,2356.033 2438.262,2249.03 	"/>
		<polygon points="
		2532.021,2088.523 2625.782,2035.021 2719.545,2088.523 2719.545,2195.527 2625.782,2249.03 2532.021,2195.527 	"/>
		<line x1="2438.262" y1="2249.03" x2="2532.021" y2="2195.527"/>
		<line x1="2719.545" y1="2195.527" x2="2813.303" y2="2249.03"/>
		<line x1="2625.782" y1="2035.021" x2="2625.782" y2="1928.018"/>
		<line x1="2625.782" y1="2249.03" x2="2625.782" y2="2142.025"/>
		<line x1="2532.021" y1="2088.523" x2="2625.782" y2="2142.025"/>
		<line x1="2625.782" y1="2142.025" x2="2719.545" y2="2088.523"/>
		<path d="M1876.458,1797.979
		"/>
		<path d="M2251.499,1797.979
		"/>
		<path d="M2626.541,1797.979
		"/>
		<path d="M1876.458,1797.979
		"/>
		<path d="M2251.499,1797.979
		"/>
		<path d="M2626.541,1797.979
		"/>
		<polygon points="
		1500.658,1714.009 1688.179,1607.004 1875.699,1714.009 1875.699,1928.019 1688.179,2035.021 1500.658,1928.019 	"/>
		<polygon points="
		1594.418,1767.511 1688.179,1714.009 1781.939,1767.511 1781.939,1874.516 1688.179,1928.019 1594.418,1874.516 	"/>
		<line x1="1500.658" y1="1928.019" x2="1594.418" y2="1874.516"/>
		<line x1="1781.939" y1="1874.516" x2="1875.699" y2="1928.019"/>
		<line x1="1687.521" y1="1714.009" x2="1687.521" y2="1607.004"/>
		<line x1="1687.521" y1="1928.019" x2="1687.521" y2="1821.013"/>
		<line x1="1594.418" y1="1767.511" x2="1688.179" y2="1821.013"/>
		<line x1="1688.179" y1="1821.013" x2="1781.939" y2="1767.511"/>
		<polygon points="
		1875.699,1714.009 2063.22,1607.004 2250.74,1714.009 2250.74,1928.019 2063.22,2035.021 1875.699,1928.019 	"/>
		<polygon points="
		1969.46,1767.511 2063.22,1714.009 2156.981,1767.511 2156.981,1874.516 2063.22,1928.019 1969.46,1874.516 	"/>
		<line x1="1875.699" y1="1928.019" x2="1969.46" y2="1874.516"/>
		<line x1="2156.981" y1="1874.516" x2="2250.74" y2="1928.019"/>
		<line x1="2063.22" y1="1714.009" x2="2063.22" y2="1607.004"/>
		<line x1="2063.22" y1="1928.019" x2="2063.22" y2="1821.013"/>
		<line x1="1969.46" y1="1767.511" x2="2063.22" y2="1821.013"/>
		<line x1="2063.22" y1="1821.013" x2="2156.981" y2="1767.511"/>
		<polygon points="
		2250.74,1714.009 2438.262,1607.004 2625.782,1714.009 2625.782,1928.019 2438.262,2035.021 2250.74,1928.019 	"/>
		<polygon points="
		2344.501,1767.511 2438.262,1714.009 2532.023,1767.511 2532.023,1874.516 2438.262,1928.019 2344.501,1874.516 	"/>
		<line x1="2250.74" y1="1928.019" x2="2344.501" y2="1874.516"/>
		<line x1="2532.023" y1="1874.516" x2="2625.782" y2="1928.019"/>
		<line x1="2438.262" y1="1714.009" x2="2438.262" y2="1607.004"/>
		<line x1="2438.262" y1="1928.019" x2="2438.262" y2="1821.013"/>
		<line x1="2344.501" y1="1767.511" x2="2438.262" y2="1821.013"/>
		<line x1="2438.262" y1="1821.013" x2="2532.023" y2="1767.511"/>
		<polygon points="
		2625.782,1714.009 2813.303,1607.004 3000.824,1714.009 3000.824,1928.019 2813.303,2035.021 2625.782,1928.019 	"/>
		<polygon points="
		2719.543,1767.511 2813.303,1714.009 2907.065,1767.511 2907.065,1874.516 2813.303,1928.019 2719.543,1874.516 	"/>
		<line x1="2625.782" y1="1928.019" x2="2719.543" y2="1874.516"/>
		<line x1="2907.065" y1="1874.516" x2="3000.824" y2="1928.019"/>
		<line x1="2813.303" y1="1714.009" x2="2813.303" y2="1607.004"/>
		<line x1="2813.303" y1="1928.019" x2="2813.303" y2="1821.013"/>
		<line x1="2719.543" y1="1767.511" x2="2813.303" y2="1821.013"/>
		<line x1="2813.303" y1="1821.013" x2="2907.065" y2="1767.511"/>
		<path d="M1876.458,1797.979
		"/>
		<path d="M2251.499,1797.979
		"/>
		<path d="M2626.541,1797.979
		"/>
		<path d="M1876.458,1797.979
		"/>
		<path d="M2251.499,1797.979
		"/>
		<path d="M2626.541,1797.979
		"/>
		<path d="M1876.458,1797.979
		"/>
		<path d="M2251.499,1797.979
		"/>
		<path d="M2626.541,1797.979
		"/>
		<path d="M1876.458,1797.979
		"/>
		<path d="M2251.499,1797.979"/>
		<path d="M2626.541,1797.979"/>
		<path d="M1876.458,1797.979"/>
		<path d="M2251.499,1797.979"/>
		<path d="M2626.541,1797.979"/>
		<path d="M1876.458,1797.979"/>
		<path d="M2251.499,1797.979"/>
		<path d="M2626.541,1797.979"/>
		<polygon points="
		2813.303,2677.047 3000.824,2570.042 3188.345,2677.045 3188.345,2891.057 3000.824,2998.06 2813.303,2891.057 	"/>
		<polygon points="
		2907.063,2730.548 3000.824,2677.047 3094.586,2730.548 3094.586,2837.554 3000.824,2891.057 2907.063,2837.554 	"/>
		<line x1="2813.303" y1="2891.057" x2="2907.063" y2="2837.554"/>
		<line x1="3094.586" y1="2837.554" x2="3188.345" y2="2891.057"/>
		<line x1="3000.824" y1="2677.047" x2="3000.824" y2="2570.042"/>
		<line x1="3000.824" y1="2891.057" x2="3000.824" y2="2784.051"/>
		<line x1="2907.063" y1="2730.548" x2="3000.824" y2="2784.051"/>
		<line x1="3000.824" y1="2784.051" x2="3094.586" y2="2730.548"/>
		<polygon points="
		2813.303,2035.021 3000.824,1928.018 3188.345,2035.021 3188.345,2249.03 3000.824,2356.033 2813.303,2249.03 	"/>
		<polygon points="
		2907.063,2088.523 3000.824,2035.021 3094.586,2088.523 3094.586,2195.527 3000.824,2249.03 2907.063,2195.527 	"/>
		<line x1="2813.303" y1="2249.03" x2="2907.063" y2="2195.527"/>
		<line x1="3094.586" y1="2195.527" x2="3188.345" y2="2249.03"/>
		<line x1="3000.824" y1="2035.021" x2="3000.824" y2="1928.018"/>
		<line x1="3000.824" y1="2249.03" x2="3000.824" y2="2142.025"/>
		<line x1="2907.063" y1="2088.523" x2="3000.824" y2="2142.025"/>
		<line x1="3000.824" y1="2142.025" x2="3094.586" y2="2088.523"/>
	</g>
</svg>
